<svg width="1512" height="130" viewBox="0 0 1512 130" fill="none" xmlns="http://www.w3.org/2000/svg">
<path d="M16.591 4.32799H52.711L34.4789 48.016L1.11095 198H-53.585L-101.057 4.32799H-65.2811L-26.4091 183.552L16.591 4.32799ZM134.239 4.32799H170.359L122.887 198H68.535L34.4789 48.016L16.2469 4.32799H52.711L95.711 183.552L134.239 4.32799ZM216.546 198V4.32799H353.802V33.568H249.914V86.2H330.066V113.72H249.914V170.48H357.242V198H216.546ZM409.194 198V4.32799H485.562C491.296 4.32799 497.488 4.55732 504.138 5.01598C511.018 5.47466 517.784 6.62133 524.434 8.456C531.314 10.2907 537.506 13.0427 543.01 16.712C548.514 20.3813 552.872 25.4267 556.082 31.848C559.522 38.04 561.242 45.952 561.242 55.584C561.242 62.9227 559.752 69.688 556.77 75.88C554.018 82.072 548.858 87.232 541.29 91.36C533.722 95.2587 522.714 97.552 508.266 98.24V99.272C524.778 99.7307 537.506 102.139 546.45 106.496C555.394 110.624 561.586 116.128 565.026 123.008C568.466 129.888 570.186 137.571 570.186 146.056C570.186 155.917 568.352 164.059 564.682 170.48C561.242 176.901 556.426 181.947 550.234 185.616C544.272 189.285 537.621 192.037 530.282 193.872C523.173 195.707 515.834 196.853 508.266 197.312C500.698 197.771 493.704 198 487.282 198H409.194ZM442.906 170.48H484.53C493.704 170.48 502.074 170.021 509.642 169.104C517.44 167.957 523.632 165.32 528.218 161.192C532.805 157.064 535.098 150.528 535.098 141.584C535.098 132.411 532.69 125.76 527.874 121.632C523.058 117.275 516.637 114.523 508.61 113.376C500.813 112 492.098 111.312 482.466 111.312H442.906V170.48ZM442.562 85.168H481.434C489.69 85.168 497.258 84.7093 504.138 83.792C511.248 82.8747 516.866 80.5813 520.994 76.912C525.352 73.2427 527.53 67.3947 527.53 59.368C527.53 50.6533 525.352 44.4613 520.994 40.792C516.866 36.8933 511.248 34.4853 504.138 33.568C497.029 32.6507 489.461 32.192 481.434 32.192H442.562V85.168ZM697.335 201.784C686.785 201.784 676.465 200.523 666.375 198C656.284 195.707 647.111 191.923 638.855 186.648C630.828 181.144 624.292 174.149 619.247 165.664C614.431 156.949 612.023 146.629 612.023 134.704H646.079C646.079 135.621 646.308 137.456 646.767 140.208C647.225 142.96 648.372 146.056 650.207 149.496C652.271 152.936 655.137 156.376 658.807 159.816C662.705 163.027 667.98 165.779 674.631 168.072C681.281 170.136 689.652 171.168 699.743 171.168C706.852 171.168 712.929 170.48 717.975 169.104C723.249 167.499 727.492 165.549 730.703 163.256C734.143 160.733 736.665 158.096 738.271 155.344C739.876 152.363 740.679 149.496 740.679 146.744C740.679 140.093 738.385 134.819 733.799 130.92C729.441 127.021 723.479 123.925 715.911 121.632C708.572 119.109 700.431 116.931 691.487 115.096C682.543 113.032 673.599 110.624 664.655 107.872C655.94 105.12 647.913 101.565 640.575 97.208C633.236 92.6213 627.503 86.7733 623.375 79.664C619.476 72.5547 617.756 63.496 618.215 52.488C618.903 41.7093 622.572 32.536 629.223 24.968C636.103 17.1707 645.391 11.208 657.087 7.08C669.012 2.952 682.772 0.887995 698.367 0.887995C712.127 0.887995 724.855 3.41066 736.551 8.456C748.247 13.272 757.649 20.6107 764.759 30.472C772.097 40.104 775.652 52.3733 775.423 67.28H742.743C742.743 59.9413 741.137 54.0933 737.927 49.736C734.716 45.1493 730.588 41.5947 725.543 39.072C720.497 36.5493 715.223 34.8293 709.719 33.912C704.215 32.9947 699.284 32.536 694.927 32.536C683.231 32.536 673.484 34.6 665.687 38.728C658.119 42.856 654.335 48.8187 654.335 56.616C654.105 63.2667 656.284 68.5413 660.871 72.44C665.457 76.3387 671.535 79.5493 679.103 82.072C686.671 84.3653 694.927 86.4293 703.871 88.264C712.815 90.0987 721.759 92.392 730.703 95.144C739.647 97.6667 747.788 101.107 755.127 105.464C762.465 109.592 768.199 115.325 772.327 122.664C776.684 129.773 778.519 138.947 777.831 150.184C777.143 161.192 773.244 170.595 766.135 178.392C759.255 185.96 749.852 191.808 737.927 195.936C726.231 199.835 712.7 201.784 697.335 201.784ZM866.843 198H832.787V4.32799H866.843V198ZM862.027 4.32799H910.187C931.745 4.32799 948.486 9.71732 960.411 20.496C972.337 31.2747 978.299 47.4427 978.299 69C978.299 88.0347 972.107 102.941 959.723 113.72C947.569 124.269 931.057 129.544 910.187 129.544H862.027V104.776H905.715C918.329 104.776 928.419 101.795 935.987 95.832C943.785 89.64 947.683 80.5813 947.683 68.656C947.683 56.0427 943.899 46.8693 936.331 41.136C928.763 35.1733 918.558 32.192 905.715 32.192H862.027V4.32799ZM1011.35 198L1073.61 4.32799H1129.34L1193.32 198H1157.2L1102.16 18.776L1047.47 198H1011.35ZM1052.63 142.96L1052.97 116.128H1150.67L1151.36 142.96H1052.63ZM1323.17 201.44C1305.05 201.44 1288.65 197.771 1273.98 190.432C1259.3 182.864 1247.6 171.741 1238.89 157.064C1230.4 142.387 1226.27 124.04 1226.5 102.024C1226.5 80.2373 1230.75 61.8907 1239.23 46.984C1247.72 31.848 1259.3 20.3813 1273.98 12.584C1288.88 4.78666 1305.62 0.887995 1324.2 0.887995C1341.86 0.887995 1356.99 4.09866 1369.61 10.52C1382.22 16.712 1392.31 25.312 1399.88 36.32C1407.45 47.328 1412.49 59.8267 1415.02 73.816H1379.93C1378.32 63.496 1374.54 55.3547 1368.58 49.392C1362.84 43.4293 1355.96 39.1867 1347.94 36.664C1340.14 34.1413 1332.23 32.88 1324.2 32.88C1303.56 32.88 1287.62 38.728 1276.38 50.424C1265.38 61.8907 1259.87 78.288 1259.87 99.616C1259.87 122.32 1265.26 139.749 1276.04 151.904C1287.05 163.829 1302.87 169.792 1323.51 169.792C1332.23 169.792 1340.6 168.416 1348.62 165.664C1356.88 162.912 1363.87 158.44 1369.61 152.248C1375.34 146.056 1379.01 137.8 1380.62 127.48H1416.05C1413.52 141.469 1408.48 154.083 1400.91 165.32C1393.34 176.557 1383.02 185.387 1369.95 191.808C1357.11 198.229 1341.51 201.44 1323.17 201.44ZM1465.44 198V4.32799H1602.7V33.568H1498.81V86.2H1578.96V113.72H1498.81V170.48H1606.14V198H1465.44Z" fill="white"/>
</svg>
